# Blender v2.69 (sub 0) OBJ File: ''
# www.blender.org
o Cube.001
v 0.718468 0.751629 0.597726
v -0.270511 0.734817 0.450631
v -0.280690 -0.248644 0.631470
v 0.866171 0.571286 -0.374725
v 0.708290 -0.231831 0.778565
v -0.122808 0.554473 -0.521820
v 0.855993 -0.412174 -0.193885
v -0.132987 -0.428987 -0.340981
vt 1.000000 1.000000
vt 0.000000 1.000000
vt 0.000000 0.000000
vt 1.000000 0.000000
vn -0.147703 0.180343 0.972451
vn 0.988979 0.016813 0.147095
vn 0.147703 -0.180343 -0.972451
vn -0.988979 -0.016812 -0.147095
vn 0.010178 0.983460 -0.180839
vn -0.010178 -0.983460 0.180839
vn 0.147703 -0.180344 -0.972451
s off
f 1/1/1 2/2/1 3/3/1
f 4/1/2 1/2/2 5/3/2
f 6/1/3 4/2/3 7/3/3
f 2/1/4 6/2/4 8/3/4
f 4/1/5 6/2/5 2/3/5
f 5/1/6 3/2/6 8/3/6
f 5/4/1 1/1/1 3/3/1
f 7/4/2 4/1/2 5/3/2
f 8/4/7 6/1/7 7/3/7
f 3/4/4 2/1/4 8/3/4
f 1/4/5 4/1/5 2/3/5
f 7/4/6 5/1/6 8/3/6
